<svg width="16" height="16" viewBox="0 0 16 16" fill="none" xmlns="http://www.w3.org/2000/svg">
<path d="M10 1.33337V2.26671C10 2.64007 10 2.82676 9.92733 2.96937C9.8634 3.09481 9.76147 3.19679 9.636 3.26071C9.4934 3.33337 9.30673 3.33337 8.93333 3.33337H7.06667C6.69327 3.33337 6.50661 3.33337 6.36401 3.26071C6.23857 3.19679 6.13658 3.09481 6.07266 2.96937C6 2.82676 6 2.64007 6 2.26671V1.33337M5.46667 14.6667H10.5333C11.2801 14.6667 11.6535 14.6667 11.9387 14.5214C12.1895 14.3936 12.3935 14.1896 12.5213 13.9387C12.6667 13.6535 12.6667 13.2801 12.6667 12.5334V3.46671C12.6667 2.71997 12.6667 2.3466 12.5213 2.06139C12.3935 1.8105 12.1895 1.60653 11.9387 1.4787C11.6535 1.33337 11.2801 1.33337 10.5333 1.33337H5.46667C4.71993 1.33337 4.34656 1.33337 4.06135 1.4787C3.81046 1.60653 3.60649 1.8105 3.47866 2.06139C3.33333 2.3466 3.33333 2.71997 3.33333 3.46671V12.5334C3.33333 13.2801 3.33333 13.6535 3.47866 13.9387C3.60649 14.1896 3.81046 14.3936 4.06135 14.5214C4.34656 14.6667 4.71993 14.6667 5.46667 14.6667Z" stroke="#003C44" stroke-width="2" stroke-linecap="round" stroke-linejoin="round"/>
</svg>
